<svg width="283" height="239" viewBox="0 0 283 239" fill="none" xmlns="http://www.w3.org/2000/svg">
<g filter="url(#filter0_d_23_78)">
<path d="M139.359 46C140.909 46 142.454 46 144.004 46C144.326 46.1262 144.643 46.2912 144.979 46.3786C150.634 47.8929 154.752 52.7949 155.05 58.3813C155.371 64.4142 151.901 69.724 146.232 71.8547C145.749 72.0343 145.267 72.2187 144.784 72.3983C149.322 72.5876 153.826 72.5681 158.325 72.5973C161.957 72.6215 165.632 72.3692 169.21 72.8351C187.484 75.2279 200.137 85.0174 207.093 102.019C207.571 103.189 208.097 103.602 209.355 103.655C219.849 104.082 228.876 111.095 231.928 121.118C232.318 122.404 232.644 123.71 233 125.01V131.771C232.873 132.15 232.693 132.514 232.62 132.902C230.631 143.886 220.648 152.787 209.852 153.059C208.336 153.098 207.741 153.583 207.244 154.971C200.859 172.696 184.34 184.568 165.432 184.781C149.595 184.956 133.744 185.199 117.917 184.718C98.4539 184.131 84.7521 174.409 76.8508 156.748C75.7736 154.34 74.9645 152.413 71.8693 153.001C71.4891 153.073 71.0601 152.845 70.6458 152.782C58.0749 150.763 49.3158 139.522 50.042 126.326C50.7001 114.371 61.253 104.111 73.4729 103.679C75.1448 103.621 75.837 103.068 76.4901 101.539C84.0941 83.7555 97.5521 73.9029 116.996 72.7235C124.151 72.2915 131.356 72.6555 138.716 72.6555C138.457 72.4323 138.384 72.3352 138.292 72.2964C137.858 72.1071 137.419 71.9323 136.981 71.7528C131.814 69.6609 128.811 65.8218 128.368 60.3373C127.924 54.8383 130.317 50.5575 135.104 47.7424C136.41 46.9756 137.931 46.5727 139.35 46L139.359 46ZM113.784 108.601C104.469 108.61 96.8405 116.206 96.8551 125.462C96.8697 134.703 104.503 142.299 113.813 142.337C123.167 142.376 130.829 134.708 130.795 125.345C130.766 116.061 123.176 108.596 113.784 108.606V108.601ZM185.958 125.51C186.007 116.25 178.554 108.669 169.336 108.601C159.778 108.533 152.208 115.886 152.149 125.292C152.096 134.722 159.612 142.313 169.029 142.333C178.359 142.352 185.909 134.848 185.958 125.505V125.51Z" fill="#C0D844"/>
</g>
<defs>
<filter id="filter0_d_23_78" x="0" y="0" width="283" height="239" filterUnits="userSpaceOnUse" color-interpolation-filters="sRGB">
<feFlood flood-opacity="0" result="BackgroundImageFix"/>
<feColorMatrix in="SourceAlpha" type="matrix" values="0 0 0 0 0 0 0 0 0 0 0 0 0 0 0 0 0 0 127 0" result="hardAlpha"/>
<feOffset dy="4"/>
<feGaussianBlur stdDeviation="25"/>
<feComposite in2="hardAlpha" operator="out"/>
<feColorMatrix type="matrix" values="0 0 0 0 0.792157 0 0 0 0 0.862745 0 0 0 0 0.290196 0 0 0 0.5 0"/>
<feBlend mode="normal" in2="BackgroundImageFix" result="effect1_dropShadow_23_78"/>
<feBlend mode="normal" in="SourceGraphic" in2="effect1_dropShadow_23_78" result="shape"/>
</filter>
</defs>
</svg>
