<svg width="126" height="126" viewBox="0 0 126 126" fill="none" xmlns="http://www.w3.org/2000/svg">
<path d="M62.9385 16.497C88.603 16.497 109.4 37.3021 109.396 62.9821C109.396 88.6272 88.5564 109.417 62.8686 109.401C37.2041 109.386 16.4884 88.5301 16.5039 62.718C16.5195 37.2827 37.4022 16.497 62.9385 16.4932V16.497ZM47.9484 53.6828C47.323 59.894 47.323 66.0197 47.9484 72.1688H77.9674C78.5695 65.9654 78.5967 59.8357 77.9441 53.6828H47.9484ZM48.6943 47.4055H77.0623C77.0701 47.2463 77.0934 47.1491 77.0778 47.0559C76.2194 42.2936 75.0307 37.6284 73.073 33.1846C71.6357 29.9178 69.9421 26.8141 67.1648 24.4601C64.5699 22.2577 61.8159 22.0363 59.2599 24.1105C57.8071 25.2875 56.5136 26.7597 55.4571 28.3057C52.8467 32.1203 51.3473 36.4475 50.1859 40.8874C49.6265 43.0239 49.1953 45.1914 48.6943 47.4055ZM48.8457 78.481C48.8341 78.6247 48.8108 78.7257 48.8263 78.819C49.8169 84.3854 51.2696 89.8119 53.8489 94.8772C55.2356 97.5964 56.8632 100.148 59.4192 101.943C60.802 102.914 62.3092 103.481 64.0533 103.054C66.4228 102.479 68.031 100.867 69.4449 99.0375C72.2029 95.4677 73.8693 91.3502 75.1201 87.0656C75.9358 84.265 76.5457 81.406 77.2682 78.481H48.8419H48.8457ZM84.435 53.6905V72.2038H102.055C103.558 66.0003 103.581 59.8474 102.039 53.6905H84.435ZM41.4692 72.2077V53.6944C41.4692 53.6944 41.4265 53.6672 41.3682 53.6672C35.728 53.6595 30.0878 53.6672 24.4476 53.64C23.7872 53.64 23.7523 54.0246 23.6513 54.4752C22.6413 59.0821 22.4121 63.724 23.0997 68.397C23.29 69.6828 23.5775 70.9569 23.8144 72.2077H41.4653H41.4692ZM99.9416 47.4172C97.7702 38.9297 84.1048 26.2392 75.7377 24.9496C80.1194 31.8367 82.1665 39.5007 83.4988 47.4172H99.9416ZM83.4988 78.4616C82.1626 86.4325 80.0999 94.077 75.6367 101.116C82.5899 98.7228 88.3077 94.9122 93.0273 89.6216C95.9717 86.3198 98.3413 82.649 100.043 78.4616H83.4988ZM42.4053 47.4366C43.7338 39.4618 45.8042 31.8212 50.0771 24.9069C38.7812 28.9389 30.7326 36.397 25.8033 47.4366H42.4053ZM50.0577 100.968C45.7693 94.0304 43.7338 86.3626 42.4053 78.5043H25.811C30.7715 89.5167 38.8045 96.9787 50.0577 100.968Z" fill="#D2E04E"/>
<path d="M62.9473 125.899C28.2399 125.899 0 97.6587 0 62.9473C0 28.236 28.2399 0 62.9473 0C97.6548 0 125.895 28.2399 125.895 62.9473C125.895 97.6548 97.6548 125.895 62.9473 125.895V125.899ZM62.9473 2.71911C29.7393 2.71911 2.71911 29.7393 2.71911 62.9473C2.71911 96.1554 29.7393 123.176 62.9473 123.176C96.1554 123.176 123.176 96.1554 123.176 62.9473C123.176 29.7393 96.1593 2.71911 62.9473 2.71911Z" fill="#D2E04E"/>
</svg>
