<svg width="127" height="127" viewBox="0 0 127 127" fill="none" xmlns="http://www.w3.org/2000/svg">
<path d="M63.199 127C28.3528 127 0 98.6473 0 63.7972C0 28.947 28.3528 0.598145 63.199 0.598145C98.0452 0.598145 126.398 28.9509 126.398 63.7972C126.398 98.6434 98.0452 126.996 63.199 126.996V127ZM63.199 3.32812C29.8582 3.32812 2.72998 30.4563 2.72998 63.7972C2.72998 97.138 29.8582 124.266 63.199 124.266C96.5399 124.266 123.668 97.138 123.668 63.7972C123.668 30.4563 96.5438 3.32812 63.199 3.32812Z" fill="#D2E04E"/>
<path d="M16.5156 72.2946C16.6833 71.6238 16.812 70.9452 17.0187 70.29C18.7737 64.7091 22.5801 61.4409 28.3208 60.5245C33.1724 59.7484 38.0552 59.6938 42.9262 60.423C44.7358 60.6921 45.7654 62.0883 45.5041 63.8472C45.2701 65.4228 43.714 66.4407 41.9668 66.2145C37.5443 65.6412 33.1217 65.6529 28.7264 66.429C25.0956 67.0686 22.5957 69.9312 22.3695 73.6089C22.3227 74.3303 22.3617 75.0596 22.3617 75.9137C22.7283 75.9137 23.052 75.9137 23.3718 75.9137C27.26 75.9137 31.1483 75.8981 35.0366 75.9254C36.8423 75.9371 38.0591 77.1773 38.0435 78.8738C38.0279 80.4416 36.8189 81.7481 35.2355 81.7559C29.951 81.7871 24.6627 81.7793 19.3782 81.7598C17.9196 81.7559 17.0928 80.816 16.5156 79.5953C16.5156 77.1656 16.5156 74.732 16.5156 72.3024V72.2946Z" fill="#D2E04E"/>
<path d="M63.1489 90.8705C56.4058 90.8705 49.6589 90.8705 42.9158 90.8705C40.5368 90.8705 39.3903 89.7395 39.3981 87.3566C39.4098 84.1977 39.3318 81.0348 39.5073 77.8836C39.8894 70.9339 45.1037 64.8577 51.9443 63.3874C56.5345 62.4007 61.2145 62.1277 65.8944 62.4436C68.8818 62.6464 71.9238 62.8141 74.8176 63.5122C82.1339 65.275 86.8841 71.6086 87.005 79.3539C87.0479 82.0878 87.0284 84.8217 87.005 87.5555C86.9894 89.7122 85.8077 90.8705 83.6549 90.8705C76.8183 90.8744 69.9855 90.8705 63.1489 90.8705ZM45.4664 84.9192H81.0926C81.0926 82.8522 81.1472 80.8476 81.0809 78.8469C80.9639 75.255 79.3337 72.4704 76.3698 70.4659C73.9986 68.8591 71.2413 68.7109 68.5269 68.4652C63.8821 68.0401 59.2489 68.2312 54.6196 68.8162C50.0021 69.4012 46.1567 72.7395 45.5288 77.3181C45.1895 79.7868 45.4703 82.3374 45.4703 84.9192H45.4664Z" fill="#D2E04E"/>
<path d="M63.1562 58.4304C56.421 58.4265 50.9766 52.9432 50.9922 46.1806C51.0078 39.5195 56.5185 34.0244 63.1952 34.0244C69.9149 34.0244 75.4099 39.5351 75.406 46.2664C75.4021 53.0017 69.9266 58.4382 63.1562 58.4343V58.4304ZM63.4253 39.9329C59.9544 39.7613 56.9982 42.5342 56.8539 46.0909C56.7174 49.4527 59.4825 52.4089 62.93 52.5922C66.3776 52.7755 69.3494 50.0143 69.5444 46.4497C69.7277 43.0645 66.9509 40.1045 63.4253 39.929V39.9329Z" fill="#D2E04E"/>
<path d="M103.953 75.9063C104.717 70.7271 101.707 66.8662 96.6251 66.2383C92.5028 65.7313 88.3922 65.6806 84.2739 66.2227C82.6359 66.4372 81.1344 65.3686 80.8965 63.8632C80.6196 62.1004 81.6414 60.6808 83.451 60.4234C88.8758 59.6512 94.3085 59.6629 99.6631 60.8485C105.591 62.1628 109.858 67.693 109.881 73.773C109.889 75.4461 109.893 77.1153 109.881 78.7884C109.865 80.4849 108.656 81.7523 106.968 81.7601C101.742 81.7796 96.5159 81.7796 91.2899 81.7601C89.6363 81.7562 88.3805 80.4966 88.3571 78.9015C88.3298 77.2128 89.5037 75.9492 91.2392 75.9297C95.0963 75.8907 98.9572 75.9102 102.818 75.9102C103.181 75.9102 103.544 75.9102 103.957 75.9102L103.953 75.9063Z" fill="#D2E04E"/>
<path d="M90.3936 58.0528C84.7426 58.0606 80.0704 53.4118 80.0392 47.7569C80.008 42.1097 84.6568 37.4571 90.3429 37.4454C96.033 37.4298 100.67 42.0278 100.693 47.7101C100.717 53.3455 96.0369 58.045 90.3936 58.0567V58.0528ZM94.785 47.7335C94.785 45.2531 92.8194 43.2797 90.3468 43.2875C87.8782 43.2953 85.936 45.2765 85.9477 47.7686C85.9594 50.1983 87.9094 52.156 90.339 52.1794C92.7804 52.2028 94.7811 50.2022 94.785 47.7335Z" fill="#D2E04E"/>
<path d="M25.7514 47.2413C26.235 41.1106 31.067 36.9766 37.1627 37.4758C42.3692 37.9009 46.7839 43.0645 46.3471 48.2202C45.844 54.1677 40.9223 58.5279 35.2673 58.0287C29.667 57.5373 25.3224 52.6116 25.7475 47.2374L25.7514 47.2413ZM40.4504 47.7522C40.4582 45.2641 38.5043 43.2907 36.0317 43.2907C33.602 43.2907 31.6364 45.2407 31.6169 47.6664C31.5974 50.1585 33.524 52.1475 35.9888 52.1865C38.4263 52.2255 40.4426 50.2209 40.4504 47.7561V47.7522Z" fill="#D2E04E"/>
</svg>
