<svg width="127" height="128" viewBox="0 0 127 128" fill="none" xmlns="http://www.w3.org/2000/svg">
<path d="M63.4515 17.1727C68.4317 17.1415 73.4666 17.9878 78.365 19.6648C80.4865 20.3902 81.8203 22.2232 81.754 24.259C81.6838 26.3727 80.2759 28.2564 78.1739 28.6581C77.1911 28.8453 76.0601 28.7088 75.089 28.4085C65.0505 25.3041 55.2732 25.854 45.9718 30.7992C35.1728 36.54 28.5038 45.5372 26.4876 57.6232C23.6055 74.8845 32.5208 91.0537 48.4834 98.101C69.4886 107.375 94.5732 94.708 99.5574 72.33C100.79 66.8037 100.829 61.2892 99.651 55.7551C99.0582 52.9705 100.583 50.4863 103.216 49.9052C105.758 49.3436 108.219 50.9386 108.789 53.7154C111.698 67.8957 108.925 80.8709 100.103 92.3719C92.9976 101.638 83.5948 107.551 72.1055 109.618C55.8504 112.539 41.6389 108.143 29.9117 96.4474C22.0143 88.5695 17.7399 78.8858 16.6947 67.7943C14.7057 46.715 28.145 26.244 48.2377 19.6258C53.1243 18.0151 58.1124 17.1571 63.4515 17.1727Z" fill="#D2E04E"/>
<path d="M58.6339 66.8279C59.0356 66.2702 59.2462 65.8724 59.5543 65.5643C71.9718 53.1312 84.4049 40.7137 96.8185 28.2806C98.1991 26.8961 99.7317 26.1317 101.725 26.6426C105.04 27.4889 106.358 31.4825 104.182 34.1306C103.905 34.466 103.585 34.7702 103.277 35.0783C89.6932 48.6619 76.1057 62.2454 62.5182 75.829C59.7844 78.5629 57.3391 78.5629 54.6013 75.829C50.2177 71.4494 45.8264 67.0736 41.4584 62.6783C39.3407 60.5529 39.3446 57.6006 41.4233 55.7091C43.346 53.958 46.0448 54.0477 48.0064 55.986C51.2473 59.1879 54.4609 62.4209 57.6784 65.6501C57.9553 65.9309 58.1776 66.2624 58.6378 66.8318L58.6339 66.8279Z" fill="#D2E04E"/>
<path d="M63.199 127.012C28.3528 127.012 0 98.659 0 63.8089C0 28.9587 28.3528 0.609863 63.199 0.609863C98.0452 0.609863 126.398 28.9626 126.398 63.8089C126.398 98.6551 98.0452 127.008 63.199 127.008V127.012ZM63.199 3.33984C29.8582 3.33984 2.72998 30.468 2.72998 63.8089C2.72998 97.1497 29.8582 124.278 63.199 124.278C96.5399 124.278 123.668 97.1497 123.668 63.8089C123.668 30.468 96.5438 3.33984 63.199 3.33984Z" fill="#D2E04E"/>
</svg>
