<svg width="127" height="127" viewBox="0 0 127 127" fill="none" xmlns="http://www.w3.org/2000/svg">
<path d="M99.8325 62.1234C98.1672 63.0945 96.6189 63.9603 95.1213 64.908C94.8912 65.0523 94.8015 65.5632 94.8015 65.9064C94.782 70.5747 94.7781 75.2468 94.7898 79.9151C94.8015 84.2519 92.9568 87.4849 89.166 89.6416C83.9596 92.6017 78.8389 95.7256 73.5701 98.5686C66.4253 102.422 59.2221 102.207 52.167 98.2254C47.0893 95.3629 42.0622 92.4067 37.0118 89.5012C33.3653 87.403 31.6103 84.2285 31.6064 80.0555C31.5986 75.3521 31.5908 70.6527 31.622 65.9493C31.6259 65.2785 31.4153 64.9119 30.8381 64.5804C27.3788 62.6031 23.9352 60.5985 20.5032 58.5822C16.6734 56.3359 16.6617 51.7378 20.4915 49.507C32.948 42.257 45.4084 35.0147 57.8766 27.792C61.3944 25.7562 64.9784 25.7406 68.4962 27.7764C80.9956 35.0108 93.4833 42.2609 105.959 49.5343C109.672 51.6988 109.711 56.1448 106.127 58.4925C105.827 58.6914 105.546 59.1789 105.542 59.5338C105.511 67.6731 105.511 75.8123 105.542 83.9516C105.542 84.3298 105.784 84.8017 106.065 85.0747C108.143 87.0832 108.241 90.2734 106.244 92.3131C104.333 94.2631 101.1 94.2709 99.1578 92.3287C97.1493 90.3202 97.2312 87.1027 99.2982 85.0981C99.5829 84.8212 99.8637 84.365 99.8637 83.9906C99.8949 76.8887 99.8871 69.7869 99.8871 62.685C99.8871 62.5602 99.8637 62.4354 99.8325 62.1273V62.1234ZM23.9235 54.0271C24.4461 54.3469 24.7971 54.5731 25.1558 54.7837C36.8285 61.5618 48.5128 68.3205 60.162 75.1376C62.268 76.37 64.1711 76.3544 66.2615 75.1337C78.0277 68.2503 89.8251 61.4214 101.611 54.5731C101.876 54.421 102.126 54.2416 102.442 54.0349C102.192 53.8711 102.063 53.7775 101.923 53.6956C89.9109 46.7185 77.8951 39.7493 65.891 32.7644C64.0268 31.6803 62.2563 31.7466 60.3999 32.8307C51.7107 37.9124 42.9943 42.9551 34.2896 48.0094C30.881 49.9906 27.4724 51.9718 23.9235 54.031V54.0271ZM37.3082 68.4024C37.2887 68.847 37.2614 69.1551 37.2614 69.4671C37.2614 72.9341 37.2926 76.4051 37.2458 79.8722C37.2185 82.103 38.1154 83.6747 40.081 84.7784C45.0184 87.5551 49.9129 90.4099 54.819 93.2374C60.3765 96.4393 65.9495 96.4627 71.5148 93.292C76.495 90.4567 81.4285 87.5395 86.4166 84.7198C88.3158 83.6474 89.1738 82.0991 89.1582 79.9619C89.1348 76.4285 89.1543 72.8951 89.1504 69.3618C89.1504 69.0849 89.127 68.808 89.1036 68.379C88.6552 68.6325 88.3276 68.8119 88 69.003C81.6469 72.6923 75.2822 76.3622 68.9408 80.0789C65.0915 82.337 61.3047 82.3331 57.4593 80.075C51.0945 76.3388 44.6986 72.6494 38.3143 68.9445C38.0179 68.7729 37.7137 68.6208 37.3043 68.4063L37.3082 68.4024Z" fill="#D2E04E"/>
<path d="M63.199 127C28.3528 127 0 98.6473 0 63.7972C0 28.947 28.3528 0.598145 63.199 0.598145C98.0452 0.598145 126.398 28.9509 126.398 63.7972C126.398 98.6434 98.0452 126.996 63.199 126.996V127ZM63.199 3.32812C29.8582 3.32812 2.72998 30.4563 2.72998 63.7972C2.72998 97.138 29.8582 124.266 63.199 124.266C96.5399 124.266 123.668 97.138 123.668 63.7972C123.668 30.4563 96.5438 3.32812 63.199 3.32812Z" fill="#D2E04E"/>
</svg>
