<svg width="125" height="126" viewBox="0 0 125 126" fill="none" xmlns="http://www.w3.org/2000/svg">
<path d="M62.4981 125.5C28.0383 125.5 0 97.4617 0 62.9981C0 28.5345 28.0383 0.5 62.4981 0.5C96.9578 0.5 124.996 28.5383 124.996 62.9981C124.996 97.4578 96.9578 125.496 62.4981 125.496V125.5ZM62.4981 3.1997C29.527 3.1997 2.6997 30.027 2.6997 62.9981C2.6997 95.9691 29.527 122.796 62.4981 122.796C95.4691 122.796 122.296 95.9691 122.296 62.9981C122.296 30.027 95.473 3.1997 62.4981 3.1997Z" fill="#D2E04E"/>
<path d="M106.37 47.5674C102.07 47.5674 98.5831 51.0539 98.5831 55.3541C98.5831 55.9249 98.6448 56.4802 98.7644 57.0163L82.007 69.8939C80.8191 69.1573 79.4191 68.733 77.9188 68.733C76.569 68.733 75.3001 69.0763 74.1932 69.6818L59.5647 56.9353C59.5454 52.6505 56.0705 49.1833 51.7819 49.1833C47.4932 49.1833 43.9952 52.6698 43.9952 56.9701C43.9952 57.1552 44.0029 57.3403 44.0183 57.5216L28.4719 68.5171C27.2107 67.6416 25.6835 67.1248 24.0328 67.1248C19.7326 67.1248 16.2461 70.6113 16.2461 74.9115C16.2461 79.2117 19.7326 82.6982 24.0328 82.6982C28.333 82.6982 31.8195 79.2117 31.8195 74.9115C31.8195 74.4718 31.7809 74.0437 31.7115 73.6234L46.8028 62.9518C48.1527 64.078 49.8882 64.7568 51.7857 64.7568C53.8028 64.7568 55.6424 63.9893 57.0231 62.732L70.4291 74.4178C70.2401 75.0889 70.136 75.7947 70.136 76.5275C70.136 80.8277 73.6224 84.3142 77.9227 84.3142C82.2229 84.3142 85.7094 80.8277 85.7094 76.5275C85.7094 75.9412 85.6438 75.3743 85.5204 74.8228L102.251 61.9645C103.446 62.7127 104.858 63.1485 106.374 63.1485C110.674 63.1485 114.16 59.662 114.16 55.3618C114.16 51.0616 110.674 47.5751 106.374 47.5751L106.37 47.5674Z" fill="#D2E04E"/>
<path d="M93.7453 51.2003L83.2511 45.4345L74.8975 54.0119L80.6633 43.5177L72.0859 35.1641L82.5801 40.9299L90.9337 32.3525L85.1679 42.8467L93.7453 51.2003Z" fill="#D2E04E"/>
<path d="M49.9276 89.6519L42.9238 85.8029L37.347 91.5301L41.196 84.5263L35.4727 78.9495L42.4764 82.7985L48.0533 77.0713L44.2043 84.0751L49.9276 89.6519Z" fill="#D2E04E"/>
</svg>
