<svg width="127" height="128" viewBox="0 0 127 128" fill="none" xmlns="http://www.w3.org/2000/svg">
<path d="M106.829 65.525C106.607 67.0616 106.451 68.6138 106.146 70.1347C103.022 85.7697 94.1383 96.9314 79.4159 102.902C54.8461 112.859 27.5619 98.7995 20.932 73.1143C14.8363 49.5117 30.0111 24.9341 53.8126 19.9031C55.6924 19.5053 57.6151 19.322 59.5183 19.0334C59.7406 18.9983 59.9551 18.9281 60.1696 18.8735C62.2132 18.8735 64.2568 18.8735 66.3003 18.8735C67.8642 19.0997 69.4398 19.2791 70.9881 19.5716C72.5169 19.8602 74.034 20.2112 75.5316 20.6285C77.1033 21.0653 77.9223 22.6058 77.466 24.0917C77.0292 25.5191 75.5433 26.2991 73.9989 25.8623C69.2565 24.5246 64.4284 24.0059 59.5222 24.5129C52.0343 25.2851 45.2951 27.9722 39.4374 32.7145C31.6062 39.0559 26.934 47.2497 25.4638 57.218C23.1316 73.0285 31.5204 89.1081 45.7943 96.3464C51.6755 99.3299 57.8998 100.781 64.4869 100.555C82.2395 99.95 97.2505 87.1698 100.655 69.7798C101.817 63.8402 101.564 57.9434 99.9493 52.1013C99.7816 51.4929 99.6919 50.8026 99.8089 50.1942C100.043 48.954 101.076 48.174 102.285 48.1272C103.592 48.0765 104.731 48.7824 105.043 50.0733C105.589 52.3236 106.022 54.6051 106.474 56.8787C106.638 57.7055 106.716 58.5518 106.829 59.3903V65.5211V65.525Z" fill="#D2E04E"/>
<path d="M106.83 35.3899C106.362 36.0178 105.957 36.712 105.411 37.2658C102.525 40.1947 99.588 43.0729 96.7098 46.0095C95.8791 46.8597 94.9275 47.2068 93.7731 47.3082C89.6547 47.6787 85.5403 48.0921 81.4258 48.5289C81.0826 48.564 80.7199 48.8604 80.4547 49.1256C75.4511 54.1098 70.4552 59.1017 65.471 64.1015C64.8236 64.7489 64.1295 65.2208 63.1701 65.1857C62.0742 65.1428 61.2747 64.628 60.795 63.6647C60.3153 62.7014 60.4011 61.7381 61.0329 60.8567C61.2279 60.5837 61.4853 60.3497 61.7232 60.1079C66.3758 55.4553 70.9934 50.7675 75.7046 46.1772C76.7771 45.132 77.2723 44.0439 77.3854 42.5854C77.6662 38.8882 78.0718 35.1988 78.4267 31.5055C78.5125 30.6008 78.8518 29.8364 79.5148 29.1812C82.6192 26.108 85.6885 23.0036 88.7968 19.9343C89.2297 19.5092 89.803 19.2284 90.3099 18.8774C90.7623 18.8774 91.2186 18.8774 91.671 18.8774C92.7864 19.3883 93.6054 20.1254 93.7068 21.4436C93.933 24.431 94.1826 27.4184 94.3854 30.4097C94.4283 31.0531 94.6545 31.2754 95.2941 31.3183C98.0865 31.5055 100.871 31.8058 103.667 31.9384C105.208 32.0125 106.234 32.6365 106.826 34.0288V35.3899H106.83ZM97.9266 37.2424C97.8642 37.1527 97.8057 37.0591 97.7433 36.9694C95.9181 36.8329 94.0968 36.6847 92.2716 36.5638C90.2787 36.4312 89.2726 35.4523 89.1439 33.4789C89.0776 32.461 89.0152 31.4431 88.9372 30.4253C88.8709 29.5946 88.7812 28.7678 88.6837 27.7655C87.034 29.4152 85.5091 30.9283 84.0076 32.461C83.8711 32.5975 83.8438 32.8666 83.8204 33.0811C83.5981 35.1091 83.3797 37.1371 83.1769 39.1651C83.0521 40.3897 82.9546 41.6143 82.8415 42.874C85.9576 42.5659 88.9684 42.2461 91.9869 41.9848C92.8332 41.9107 93.4533 41.587 94.0149 40.9669C94.8534 40.0426 95.7582 39.1807 96.6552 38.3149C97.053 37.9288 97.5015 37.5973 97.9266 37.2424Z" fill="#D2E04E"/>
<path d="M93.3216 62.4484C93.2319 76.9718 83.1349 89.2645 68.7869 91.9906C52.6254 95.0638 37.4428 84.6314 33.9641 69.2148C30.3176 53.0533 40.0441 37.274 56.0184 33.2844C60.9519 32.052 65.897 32.1027 70.8227 33.3663C72.6167 33.8265 73.5293 35.211 73.1081 36.8255C72.7064 38.3621 71.2283 39.1109 69.4655 38.6663C56.3187 35.3748 43.168 42.9446 39.5488 55.8925C35.7541 69.4644 44.2483 83.516 58.0386 86.4878C71.513 89.3932 84.8704 80.5754 87.3858 67.101C88.0644 63.4584 87.9474 59.8276 87.031 56.224C86.5825 54.4651 87.3391 52.9948 88.8873 52.5931C90.4863 52.1758 91.9722 53.0884 92.3154 54.8902C92.7951 57.3862 93.1344 59.9095 93.5361 62.4172C93.462 62.4289 93.3918 62.4406 93.3177 62.4523L93.3216 62.4484Z" fill="#D2E04E"/>
<path d="M63.2048 78.8046C55.0383 78.8007 48.1548 72.7791 47.0434 64.6633C45.8188 55.7284 52.0938 47.4293 61.0052 46.2983C62.4209 46.1189 63.8912 46.1657 65.3147 46.2983C66.4535 46.4036 67.2803 47.4215 67.4558 48.533C67.6274 49.6094 67.0736 50.8106 66.0362 51.2942C65.5253 51.536 64.8857 51.6686 64.3241 51.614C58.2948 51.0212 52.9908 55.3579 52.398 61.6174C51.8364 67.5492 56.337 72.5529 61.7891 73.2315C68.3606 74.0466 73.918 69.2262 74.1325 62.4793C74.1832 60.8725 75.3259 59.7337 76.8781 59.7454C78.4147 59.7532 79.5847 60.9349 79.5652 62.53C79.5535 63.4348 79.5067 64.3474 79.3585 65.2366C78.0247 73.0755 71.1803 78.8124 63.2009 78.8046H63.2048Z" fill="#D2E04E"/>
<path d="M63.199 127.012C28.3528 127.012 0 98.659 0 63.8089C0 28.9587 28.3528 0.609863 63.199 0.609863C98.0452 0.609863 126.398 28.9626 126.398 63.8089C126.398 98.6551 98.0452 127.008 63.199 127.008V127.012ZM63.199 3.33984C29.8582 3.33984 2.72998 30.468 2.72998 63.8089C2.72998 97.1497 29.8582 124.278 63.199 124.278C96.5399 124.278 123.668 97.1497 123.668 63.8089C123.668 30.468 96.5438 3.33984 63.199 3.33984Z" fill="#D2E04E"/>
</svg>
