<svg width="142" height="104" viewBox="0 0 142 104" fill="none" xmlns="http://www.w3.org/2000/svg">
<g clip-path="url(#clip0_15_32)">
<path d="M46.3041 102.657C47.3078 104.417 49.8454 104.452 50.8969 102.72L66.5396 76.9529C67.569 75.2575 70.0366 75.2456 71.083 76.9326L85.9163 100.867C86.9201 102.486 89.2599 102.555 90.3591 100.999L127.481 48.4191C128.378 47.1493 130.174 46.9153 131.369 47.9122L132.562 48.9074C134.131 50.2163 136.538 49.3448 136.892 47.3374L141.96 18.7036C142.315 16.6963 140.353 15.0602 138.429 15.757L110.97 25.7074C109.046 26.4042 108.601 28.9134 110.17 30.2222L112.537 32.1974C113.596 33.0807 113.799 34.6218 113.004 35.7476L91.4021 66.3464C90.3029 67.9028 87.963 67.8333 86.9593 66.2142L70.9143 40.3252C69.8696 38.6383 67.4003 38.6501 66.3709 40.3456L51.4201 64.9731C50.3686 66.7058 47.831 66.6702 46.8273 64.9104L39.5163 52.0812C38.792 50.8113 39.2385 49.1973 40.5149 48.4751L47.4663 44.5417C48.7445 43.8195 49.191 42.202 48.4633 40.9322L41.6175 28.9592C40.8916 27.6876 39.2658 27.2434 37.9893 27.9674L31.0669 31.8838C29.7888 32.6077 28.163 32.1618 27.437 30.8885L26.4605 29.1745C25.7362 27.9046 26.1844 26.2906 27.4591 25.5683L42.7406 16.9217C44.0188 16.1995 44.4653 14.5821 43.7376 13.3122L36.8918 1.3392C36.1658 0.067644 34.54 -0.376554 33.2636 0.347387L1.63894 18.2391L1.64235 18.2442L1.34923 18.4086C0.0710823 19.1292 -0.378824 20.7449 0.347161 22.0165L46.3024 102.655L46.3041 102.657Z" fill="#B2D33E"/>
</g>
<defs>
<clipPath id="clip0_15_32">
<rect width="142" height="104" fill="white"/>
</clipPath>
</defs>
</svg>
