<svg width="192" height="158" viewBox="0 0 192 158" fill="none" xmlns="http://www.w3.org/2000/svg">
<g filter="url(#filter0_d_21_35)">
<path d="M166.36 128.954C164.61 132.644 163.02 133.454 159.02 132.594C146.73 129.954 134.32 128.654 121.76 129.554C116.87 129.904 112.02 130.764 107.15 131.394C107.77 130.854 108.46 130.194 109.21 129.594C115.24 124.804 122.15 121.844 129.65 120.474C134.56 119.574 139.57 119.164 144.56 118.824C149.88 118.454 153.85 116.224 156.32 111.464C157.41 109.364 157.64 107.094 157.63 104.774C157.63 84.6736 157.63 64.5736 157.63 44.4636C157.63 43.8736 157.63 43.2836 157.63 42.7136C162.54 42.0936 164.66 42.4936 166.37 46.4036V128.954H166.36Z" fill="#C0D844"/>
<path d="M91.68 127.534C90.58 126.524 89.67 125.634 88.7 124.804C80.46 117.684 70.76 113.764 60.1 112.164C55.8 111.514 51.42 111.294 47.07 111.004C43.55 110.764 41.57 108.824 41.57 105.284C41.57 80.4036 41.57 55.5136 41.57 30.6336C41.57 26.9136 43.79 24.9036 47.5 25.0036C54.61 25.2036 61.6 26.0836 68.37 28.4036C77.56 31.5536 85.2 36.7836 90.52 45.0536C91.21 46.1136 91.71 47.5136 91.72 48.7636C91.79 74.7936 91.77 100.834 91.77 126.864C91.77 126.994 91.74 127.134 91.68 127.534Z" fill="#C0D844"/>
<path d="M99.58 127.594C99.58 126.704 99.58 126.164 99.58 125.614C99.58 100.824 99.65 76.0236 99.5 51.2336C99.48 47.5236 100.74 44.7036 102.96 41.9836C109.94 33.4136 119.16 28.6836 129.78 26.6036C134.54 25.6736 139.43 25.3936 144.28 25.0236C147.63 24.7636 149.78 27.0936 149.78 30.6336C149.78 45.4036 149.78 60.1636 149.78 74.9336C149.78 84.8236 149.78 94.7136 149.78 104.604C149.78 109.104 147.99 110.904 143.44 110.994C134.69 111.174 126.15 112.494 117.95 115.674C111.49 118.184 105.68 121.714 100.71 126.584C100.43 126.864 100.11 127.114 99.57 127.584L99.58 127.594Z" fill="#C0D844"/>
<path d="M84.3 131.494C74.79 129.484 65.28 128.964 55.68 129.444C47.72 129.834 39.85 130.964 32.07 132.664C27.65 133.624 25 131.494 25 126.964C25 100.784 25 74.6036 25 48.4336C25 44.4136 26.9 42.5136 30.9 42.5036C31.77 42.5036 32.64 42.5036 33.74 42.5036C33.74 43.1636 33.74 43.7336 33.74 44.3136C33.74 64.5136 33.76 84.7036 33.73 104.904C33.73 109.464 35.2 113.274 38.85 116.114C41.27 118.004 44.05 118.744 47.08 118.804C52.84 118.914 58.55 119.524 64.14 120.974C71.21 122.814 77.74 125.744 83.32 130.574C83.66 130.864 83.98 131.194 84.3 131.504V131.494Z" fill="#C0D844"/>
</g>
<defs>
<filter id="filter0_d_21_35" x="0" y="0" width="191.371" height="157.908" filterUnits="userSpaceOnUse" color-interpolation-filters="sRGB">
<feFlood flood-opacity="0" result="BackgroundImageFix"/>
<feColorMatrix in="SourceAlpha" type="matrix" values="0 0 0 0 0 0 0 0 0 0 0 0 0 0 0 0 0 0 127 0" result="hardAlpha"/>
<feOffset/>
<feGaussianBlur stdDeviation="12.5"/>
<feComposite in2="hardAlpha" operator="out"/>
<feColorMatrix type="matrix" values="0 0 0 0 0.756863 0 0 0 0 0.85098 0 0 0 0 0.27451 0 0 0 0.5 0"/>
<feBlend mode="normal" in2="BackgroundImageFix" result="effect1_dropShadow_21_35"/>
<feBlend mode="normal" in="SourceGraphic" in2="effect1_dropShadow_21_35" result="shape"/>
</filter>
</defs>
</svg>
